<svg width="138" height="91" viewBox="0 0 138 91" fill="none" xmlns="http://www.w3.org/2000/svg">
<path d="M21.88 46.248H18.424V42.152H21.88C28.9627 42.152 33.912 40.36 36.728 36.776C39.6293 33.192 41.08 28.584 41.08 22.952C41.08 16.9787 39.8427 12.456 37.368 9.384C34.8933 6.31199 31.3947 4.77599 26.872 4.77599C20.984 4.77599 16.888 6.90933 14.584 11.176C12.3653 15.3573 11.6827 21.3733 12.536 29.224L1.4 27.176C0.632 22.568 1.016 18.2587 2.552 14.248C4.17333 10.2373 6.98933 6.99466 11 4.52C15.096 1.95999 20.4293 0.679993 27 0.679993C33.3147 0.679993 38.392 1.74666 42.232 3.88C46.1573 5.928 49.016 8.65866 50.808 12.072C52.6 15.4 53.496 19.0267 53.496 22.952C53.496 28.9253 51.6613 33.6613 47.992 37.16C44.408 40.6587 39.2027 43.0053 32.376 44.2C39.6293 45.3093 45.176 47.784 49.016 51.624C52.9413 55.464 54.904 60.6693 54.904 67.24C54.904 71.4213 53.88 75.2613 51.832 78.76C49.8693 82.2587 46.7973 85.0747 42.616 87.208C38.52 89.256 33.1867 90.28 26.616 90.28C20.3867 90.28 14.9253 88.8293 10.232 85.928C5.624 83.0267 2.33867 77.8213 0.376 70.312L8.44 68.008C9.12267 72.7013 10.3173 76.3707 12.024 79.016C13.816 81.6613 15.9067 83.5387 18.296 84.648C20.7707 85.672 23.3733 86.184 26.104 86.184C37.0267 86.184 42.488 79.8693 42.488 67.24C42.488 61.096 40.952 56.0613 37.88 52.136C34.808 48.2107 29.4747 46.248 21.88 46.248ZM68.644 5.41599V1.96H104.996C115.407 1.96 123.385 5.33067 128.932 12.072C134.479 18.8133 137.252 28.328 137.252 40.616V50.216C137.252 62.5893 134.479 72.1467 128.932 78.888C123.385 85.6293 115.407 89 104.996 89H68.644V85.672L75.684 84.904C77.0493 84.7333 77.86 84.392 78.116 83.88C78.372 83.368 78.5 81.6187 78.5 78.632V12.328C78.5 9.34133 78.372 7.592 78.116 7.07999C77.86 6.568 77.0493 6.22666 75.684 6.056L68.644 5.41599ZM104.74 6.056H89.636V84.904H104.74C109.348 84.904 113.145 84.0507 116.132 82.344C119.119 80.6373 121.337 77.736 122.788 73.64C124.324 69.4587 125.092 63.784 125.092 56.616V34.216C125.092 27.1333 124.324 21.544 122.788 17.448C121.337 13.352 119.119 10.4507 116.132 8.744C113.145 6.952 109.348 6.056 104.74 6.056Z" fill="#FEF9F9"/>
</svg>
